# xmcd
#
# Track frame offsets: 
#        183
#        13888
#        27138
#        41058
#        55623
#        70015
#        83945
#        98618
#        112363
#        124473
#        139068
#        150203
#        165070
#        179588
#        194120
#        208248
#        221153
#        235678
#        250340
#        263470
#        275745
#        290653
#        304690
#        318450
#        331918
#
# Disc length: 4614 seconds
#
# Revision: 1
# Processed by: cddbd v1.5.2PL0 Copyright (c) Steve Scherf et al.
# Submitted via: ExactAudioCopy v1.3
#
DISCID=73120419
DTITLE=Nat Gonella and his Georgians - Nat Gonella and  his Georgians
DYEAR=1997
DGENRE=Jazz
TTITLE0=Nat Gonella and his Georgians 1935 - Nagasaki
TTITLE1=Nat Gonella and his Georgians 1997 preiviously unissued take - T
TTITLE1=he Mayor of Alabam
TTITLE2=Nat Gonella and his Georgians 1938 - When You're Smiling
TTITLE3=Nat Gonella and his Georgians 1937 - Medley: China Boy, I Never 
TTITLE3=Knew, That's A Plenty
TTITLE4=Nat Gonella and his Georgians 1997 preiviously unissued take - B
TTITLE4=essie Could'nt Help It
TTITLE5=Nat Gonella and his Georgians 1936 - You Rascal You
TTITLE6=Nat Gonella and his Georgians 1936 - Just A Crazy Song
TTITLE7=Nat Gonella and his Georgians 1937 - I'd LikeTo See Samoa Of Sam
TTITLE7=oa
TTITLE8=Nat Gonella and his Georgians 1997 preiviously unissued take - J
TTITLE8=unk Man's Blues
TTITLE9=Nat Gonella and his Georgians 1935 - Down T'Uncle Bills
TTITLE10=Nat Gonella and his Georgians 1937 - Crazy Valves
TTITLE11=Nat Gonella and his Georgians 1938 - On The Sunny Side Of The S
TTITLE11=treet
TTITLE12=Nat Gonella and his Georgians 1997 preiviously unissued take - 
TTITLE12=Twlight In Turkey
TTITLE13=Nat Gonella and his Georgians 1936 - His Old Cornet
TTITLE14=Nat Gonella and his Georgians 1935 - TIger Rag
TTITLE15=Nat Gonella and his Georgians 1936 - Get Hot
TTITLE16=Nat Gonella and his Georgians 1937 - Some Of These Days
TTITLE17=Nat Gonella and his Georgians 1939 - T'Aint What You Do
TTITLE18=Nat Gonella and his Georgians 1997 preiviously unissued take - 
TTITLE18=Ain't Misbehavin'
TTITLE19=Intrumental, Nat Gonella and his Georgians 1938 - Ciribiribin
TTITLE20=Nat Gonella and his Georgians 1938 - The Flat Foot Floogie
TTITLE21=Jimmy Messene, Nat Gonella and his Georgians 1936 - Makin A Foo
TTITLE21=l Of Myself
TTITLE22=Nat Gonella and his Georgians 1997 preiviously unissued take - 
TTITLE22=Swing and Sway
TTITLE23=Intrumental, Nat Gonella and his Georgians 1937 - Bill Tell
TTITLE24=Nat Gonella and his Georgians 1935 - Medley: Georgia's Gorgeous
TTITLE24=Girl, Sentimental Gentleman From Georgia, Georgia On My Mind
EXTD=
EXTT0=
EXTT1=
EXTT2=
EXTT3=
EXTT4=
EXTT5=
EXTT6=
EXTT7=
EXTT8=
EXTT9=
EXTT10=
EXTT11=
EXTT12=
EXTT13=
EXTT14=
EXTT15=
EXTT16=
EXTT17=
EXTT18=
EXTT19=
EXTT20=
EXTT21=
EXTT22=
EXTT23=
EXTT24=
PLAYORDER=
